<svg width="64" height="64" viewBox="0 0 64 64" fill="none" xmlns="http://www.w3.org/2000/svg">
<path d="M8.00011 48.0002C6.53344 48.0002 5.27789 47.4779 4.23344 46.4335C3.18899 45.3891 2.66677 44.1335 2.66677 42.6668C2.66677 41.2002 3.18899 39.9446 4.23344 38.9002C5.27789 37.8557 6.53344 37.3335 8.00011 37.3335H8.70011C8.90011 37.3335 9.11122 37.3779 9.33345 37.4668L21.4668 25.3335C21.3779 25.1112 21.3335 24.9001 21.3335 24.7001V24.0001C21.3335 22.5335 21.8557 21.2779 22.9001 20.2335C23.9446 19.189 25.2001 18.6668 26.6668 18.6668C28.1335 18.6668 29.389 19.189 30.4335 20.2335C31.4779 21.2779 32.0001 22.5335 32.0001 24.0001C32.0001 24.089 31.9557 24.5335 31.8668 25.3335L38.6668 32.1335C38.889 32.0446 39.1002 32.0001 39.3002 32.0001H40.7002C40.9002 32.0001 41.1113 32.0446 41.3335 32.1335L50.8002 22.6668C50.7113 22.4446 50.6668 22.2335 50.6668 22.0335V21.3335C50.6668 19.8668 51.1891 18.6112 52.2335 17.5668C53.278 16.5223 54.5335 16.0001 56.0002 16.0001C57.4669 16.0001 58.7224 16.5223 59.7669 17.5668C60.8113 18.6112 61.3335 19.8668 61.3335 21.3335C61.3335 22.8001 60.8113 24.0557 59.7669 25.1001C58.7224 26.1446 57.4669 26.6668 56.0002 26.6668H55.3002C55.1002 26.6668 54.8891 26.6224 54.6668 26.5335L45.2002 36.0002C45.2891 36.2224 45.3335 36.4335 45.3335 36.6335V37.3335C45.3335 38.8002 44.8113 40.0557 43.7668 41.1002C42.7224 42.1446 41.4668 42.6668 40.0002 42.6668C38.5335 42.6668 37.2779 42.1446 36.2335 41.1002C35.189 40.0557 34.6668 38.8002 34.6668 37.3335V36.6335C34.6668 36.4335 34.7113 36.2224 34.8002 36.0002L28.0001 29.2001C27.7779 29.289 27.5668 29.3335 27.3668 29.3335H26.6668C26.5779 29.3335 26.1335 29.289 25.3335 29.2001L13.2001 41.3335C13.289 41.5557 13.3335 41.7668 13.3335 41.9668V42.6668C13.3335 44.1335 12.8112 45.3891 11.7668 46.4335C10.7223 47.4779 9.46678 48.0002 8.00011 48.0002Z" fill="black"/>
</svg>
