<svg width="100" height="96" viewBox="0 0 100 96" fill="none" xmlns="http://www.w3.org/2000/svg">
<path d="M8.3335 83.8926V35.9539L41.6668 11.9846L64.0627 28.1639C62.3266 28.3637 60.6946 28.7465 59.1668 29.3124C57.6391 29.8784 56.1807 30.6274 54.7918 31.5596L41.6668 21.9718L16.6668 39.9488V75.9028H33.3335V83.8926H8.3335ZM41.6668 83.8926V76.3023C41.6668 74.9041 42.0314 73.5891 42.7606 72.3573C43.4897 71.1256 44.4793 70.1435 45.7293 69.4111C48.9238 67.6134 52.2745 66.2485 55.7814 65.3164C59.2884 64.3842 62.9168 63.9181 66.6668 63.9181C70.4168 63.9181 74.0453 64.3842 77.5522 65.3164C81.0592 66.2485 84.4099 67.6134 87.6043 69.4111C88.8543 70.1435 89.8439 71.1256 90.5731 72.3573C91.3023 73.5891 91.6668 74.9041 91.6668 76.3023V83.8926H41.6668ZM50.6252 75.9028H82.7085C80.2779 74.5712 77.7085 73.5725 75.0002 72.9066C72.2918 72.2408 69.5141 71.9079 66.6668 71.9079C63.8196 71.9079 61.0418 72.2408 58.3335 72.9066C55.6252 73.5725 53.0557 74.5712 50.6252 75.9028ZM66.6668 59.9233C63.1946 59.9233 60.2432 58.7581 57.8127 56.4277C55.3821 54.0974 54.1668 51.2677 54.1668 47.9386C54.1668 44.6095 55.3821 41.7798 57.8127 39.4495C60.2432 37.1191 63.1946 35.9539 66.6668 35.9539C70.1391 35.9539 73.0904 37.1191 75.521 39.4495C77.9516 41.7798 79.1668 44.6095 79.1668 47.9386C79.1668 51.2677 77.9516 54.0974 75.521 56.4277C73.0904 58.7581 70.1391 59.9233 66.6668 59.9233ZM66.6668 51.9335C67.8474 51.9335 68.837 51.5506 69.6356 50.785C70.4342 50.0193 70.8335 49.0705 70.8335 47.9386C70.8335 46.8067 70.4342 45.8579 69.6356 45.0922C68.837 44.3266 67.8474 43.9437 66.6668 43.9437C65.4863 43.9437 64.4967 44.3266 63.6981 45.0922C62.8995 45.8579 62.5002 46.8067 62.5002 47.9386C62.5002 49.0705 62.8995 50.0193 63.6981 50.785C64.4967 51.5506 65.4863 51.9335 66.6668 51.9335Z" fill="#1182C1"/>
</svg>
