<svg width="64" height="64" viewBox="0 0 64 64" fill="none" xmlns="http://www.w3.org/2000/svg">
<path d="M13.7332 50.2668C11.9109 48.1335 10.4998 45.7446 9.49982 43.1002C8.49981 40.4557 7.99981 37.6446 7.99981 34.6668C7.99981 28.0001 10.3332 22.3335 14.9998 17.6668C19.6665 13.0001 25.3332 10.6668 31.9999 10.6668H32.5332L28.2665 6.40011L31.9999 2.66677L42.6665 13.3335L31.9999 24.0001L28.1998 20.2001L32.3999 16.0001H31.9999C26.8443 16.0001 22.4443 17.8223 18.7998 21.4668C15.1554 25.1112 13.3332 29.5113 13.3332 34.6668C13.3332 36.9335 13.6998 39.0668 14.4332 41.0668C15.1665 43.0668 16.1998 44.8668 17.5332 46.4668L13.7332 50.2668ZM29.3332 49.3335C29.3332 48.3113 28.9887 47.3002 28.2998 46.3002C27.611 45.3002 26.8443 44.2557 25.9998 43.1668C25.1554 42.0779 24.3887 40.9446 23.6998 39.7668C23.0109 38.589 22.6665 37.3335 22.6665 36.0002C22.6665 33.4224 23.5776 31.2224 25.3998 29.4001C27.2221 27.5779 29.4221 26.6668 31.9999 26.6668C34.5776 26.6668 36.7776 27.5779 38.5999 29.4001C40.4221 31.2224 41.3332 33.4224 41.3332 36.0002C41.3332 37.3335 40.9888 38.589 40.2999 39.7668C39.611 40.9446 38.8443 42.0779 37.9999 43.1668C37.1554 44.2557 36.3887 45.3002 35.6999 46.3002C35.011 47.3002 34.6665 48.3113 34.6665 49.3335H29.3332ZM29.3332 56.0002V52.0002H34.6665V56.0002H29.3332ZM50.2665 50.2668L46.4665 46.4668C47.7999 44.8668 48.8332 43.0668 49.5665 41.0668C50.2999 39.0668 50.6665 36.9335 50.6665 34.6668C50.6665 31.7335 50.0554 29.0113 48.8332 26.5001C47.611 23.989 45.9332 21.889 43.7999 20.2001L47.5999 16.4001C50.1777 18.6223 52.2221 21.3001 53.7332 24.4335C55.2443 27.5668 55.9999 30.9779 55.9999 34.6668C55.9999 37.6446 55.4999 40.4557 54.4999 43.1002C53.4999 45.7446 52.0888 48.1335 50.2665 50.2668Z" fill="black"/>
</svg>
