<svg width="100" height="96" viewBox="0 0 100 96" fill="none" xmlns="http://www.w3.org/2000/svg">
<path d="M25 87.8875V70.7095C21.0417 67.2472 17.9688 63.2024 15.7812 58.575C13.5938 53.9476 12.5 49.0705 12.5 43.9437C12.5 33.9565 16.1458 25.4674 23.4375 18.4763C30.7292 11.4853 39.5833 7.98975 50 7.98975C58.6806 7.98975 66.3715 10.4366 73.0729 15.3303C79.7743 20.2241 84.1319 26.5993 86.1458 34.4559L91.5625 54.9297C91.9097 56.1947 91.6667 57.3432 90.8333 58.3752C90 59.4073 88.8889 59.9233 87.5 59.9233H79.1667V71.9079C79.1667 74.1051 78.3507 75.986 76.7188 77.5507C75.0868 79.1154 73.125 79.8977 70.8333 79.8977H62.5V87.8875H54.1667V71.9079H70.8333V51.9335H82.0833L78.125 36.4533C76.5278 30.3944 73.125 25.4674 67.9167 21.6722C62.7083 17.8771 56.7361 15.9795 50 15.9795C41.9444 15.9795 35.0694 18.6761 29.375 24.0692C23.6806 29.4623 20.8333 36.0205 20.8333 43.744C20.8333 47.7389 21.684 51.534 23.3854 55.1294C25.0868 58.7248 27.5 61.9207 30.625 64.7171L33.3333 67.1141V87.8875H25ZM45.8333 59.9233H54.1667L54.7917 54.9297C55.3472 54.7299 55.8507 54.4969 56.3021 54.2306C56.7535 53.9642 57.1528 53.6646 57.5 53.3317L62.2917 55.3291L66.4583 48.5378L62.2917 45.5417C62.4306 45.009 62.5 44.4764 62.5 43.9437C62.5 43.4111 62.4306 42.8784 62.2917 42.3458L66.4583 39.3496L62.2917 32.5583L57.5 34.5557C57.1528 34.2228 56.7535 33.9232 56.3021 33.6569C55.8507 33.3906 55.3472 33.1575 54.7917 32.9578L54.1667 27.9642H45.8333L45.2083 32.9578C44.6528 33.1575 44.1493 33.3906 43.6979 33.6569C43.2465 33.9232 42.8472 34.2228 42.5 34.5557L37.7083 32.5583L33.5417 39.3496L37.7083 42.3458C37.5694 42.8784 37.5 43.4111 37.5 43.9437C37.5 44.4764 37.5694 45.009 37.7083 45.5417L33.5417 48.5378L37.7083 55.3291L42.5 53.3317C42.8472 53.6646 43.2465 53.9642 43.6979 54.2306C44.1493 54.4969 44.6528 54.7299 45.2083 54.9297L45.8333 59.9233ZM50 49.9361C48.2639 49.9361 46.7882 49.3535 45.5729 48.1883C44.3576 47.0231 43.75 45.6083 43.75 43.9437C43.75 42.2792 44.3576 40.8643 45.5729 39.6992C46.7882 38.534 48.2639 37.9514 50 37.9514C51.7361 37.9514 53.2118 38.534 54.4271 39.6992C55.6424 40.8643 56.25 42.2792 56.25 43.9437C56.25 45.6083 55.6424 47.0231 54.4271 48.1883C53.2118 49.3535 51.7361 49.9361 50 49.9361Z" fill="#1182C1"/>
</svg>
