<svg width="91" height="89" viewBox="0 0 91 89" fill="none" xmlns="http://www.w3.org/2000/svg">
<path d="M7.5835 73.5059V66.1553H45.5002V73.5059H7.5835ZM18.9585 62.48C16.8731 62.48 15.0878 61.7603 13.6028 60.3208C12.1177 58.8813 11.3752 57.1508 11.3752 55.1294V22.0518C11.3752 20.0304 12.1177 18.2999 13.6028 16.8604C15.0878 15.4209 16.8731 14.7012 18.9585 14.7012H72.0418C74.1273 14.7012 75.9125 15.4209 77.3976 16.8604C78.8826 18.2999 79.6252 20.0304 79.6252 22.0518H18.9585V55.1294H45.5002V62.48H18.9585ZM75.8335 66.1553V36.7529H60.6668V66.1553H75.8335ZM58.771 73.5059C57.1911 73.5059 55.8483 72.9699 54.7424 71.898C53.6365 70.826 53.0835 69.5243 53.0835 67.993V34.9153C53.0835 33.3839 53.6365 32.0823 54.7424 31.0103C55.8483 29.9383 57.1911 29.4024 58.771 29.4024H77.7293C79.3092 29.4024 80.6521 29.9383 81.758 31.0103C82.8639 32.0823 83.4168 33.3839 83.4168 34.9153V67.993C83.4168 69.5243 82.8639 70.826 81.758 71.898C80.6521 72.9699 79.3092 73.5059 77.7293 73.5059H58.771ZM68.2502 45.9412C69.0717 45.9412 69.751 45.6655 70.2882 45.1142C70.8253 44.563 71.0939 43.9198 71.0939 43.1847C71.0939 42.3884 70.8253 41.7299 70.2882 41.2092C69.751 40.6886 69.0717 40.4282 68.2502 40.4282C67.4918 40.4282 66.8283 40.6886 66.2595 41.2092C65.6908 41.7299 65.4064 42.3884 65.4064 43.1847C65.4064 43.9198 65.6908 44.563 66.2595 45.1142C66.8283 45.6655 67.4918 45.9412 68.2502 45.9412Z" fill="white"/>
</svg>
