<svg width="64" height="64" viewBox="0 0 64 64" fill="none" xmlns="http://www.w3.org/2000/svg">
<path d="M45.3332 42.6665C43.111 42.6665 41.2221 41.8888 39.6665 40.3332C38.111 38.7776 37.3332 36.8887 37.3332 34.6665C37.3332 32.4443 38.111 30.5554 39.6665 28.9998C41.2221 27.4443 43.111 26.6665 45.3332 26.6665C47.5554 26.6665 49.4443 27.4443 50.9999 28.9998C52.5554 30.5554 53.3332 32.4443 53.3332 34.6665C53.3332 36.8887 52.5554 38.7776 50.9999 40.3332C49.4443 41.8888 47.5554 42.6665 45.3332 42.6665ZM45.3332 37.3332C46.0888 37.3332 46.7221 37.0776 47.2332 36.5665C47.7443 36.0554 47.9999 35.4221 47.9999 34.6665C47.9999 33.911 47.7443 33.2776 47.2332 32.7665C46.7221 32.2554 46.0888 31.9999 45.3332 31.9999C44.5776 31.9999 43.9443 32.2554 43.4332 32.7665C42.9221 33.2776 42.6665 33.911 42.6665 34.6665C42.6665 35.4221 42.9221 36.0554 43.4332 36.5665C43.9443 37.0776 44.5776 37.3332 45.3332 37.3332ZM29.3332 61.3332V53.5999C29.3332 52.6665 29.5554 51.7888 29.9998 50.9665C30.4443 50.1443 31.0665 49.4888 31.8665 48.9999C33.2887 48.1554 34.7887 47.4554 36.3665 46.8999C37.9443 46.3443 39.5554 45.9332 41.1999 45.6665L45.3332 50.6665L49.4665 45.6665C51.111 45.9332 52.711 46.3443 54.2665 46.8999C55.8221 47.4554 57.311 48.1554 58.7332 48.9999C59.5332 49.4888 60.1666 50.1443 60.6332 50.9665C61.0999 51.7888 61.3332 52.6665 61.3332 53.5999V61.3332H29.3332ZM34.5999 55.9999H42.7999L39.1999 51.5999C38.3999 51.8221 37.6221 52.111 36.8665 52.4665C36.111 52.8221 35.3554 53.1999 34.5999 53.5999V55.9999ZM47.8665 55.9999H55.9999V53.5999C55.2888 53.1554 54.5554 52.7665 53.7999 52.4332C53.0443 52.0999 52.2665 51.8221 51.4665 51.5999L47.8665 55.9999ZM13.3332 55.9999C11.8665 55.9999 10.6109 55.4777 9.56648 54.4332C8.52204 53.3888 7.99981 52.1332 7.99981 50.6665V13.3332C7.99981 11.8665 8.52204 10.6109 9.56648 9.56648C10.6109 8.52204 11.8665 7.99981 13.3332 7.99981H50.6665C52.1332 7.99981 53.3888 8.52204 54.4332 9.56648C55.4777 10.6109 55.9999 11.8665 55.9999 13.3332V26.6665C55.2888 25.7776 54.511 24.9332 53.6665 24.1332C52.8221 23.3332 51.8221 22.7998 50.6665 22.5332V13.3332H13.3332V50.6665H24.3998C24.2665 51.1554 24.1665 51.6443 24.0998 52.1332C24.0332 52.6221 23.9998 53.111 23.9998 53.5999V55.9999H13.3332ZM18.6665 23.9998H37.3332C38.4887 23.1109 39.7554 22.4443 41.1332 21.9998C42.511 21.5554 43.911 21.3332 45.3332 21.3332V18.6665H18.6665V23.9998ZM18.6665 34.6665H31.9999C31.9999 33.7332 32.0999 32.8221 32.2999 31.9332C32.4999 31.0443 32.7776 30.1776 33.1332 29.3332H18.6665V34.6665ZM18.6665 45.3332H27.8665C28.3554 44.9332 28.8776 44.5776 29.4332 44.2665C29.9887 43.9554 30.5554 43.6665 31.1332 43.3999V39.9999H18.6665V45.3332ZM13.3332 50.6665V13.3332V22.4665V21.3332V50.6665Z" fill="black"/>
</svg>
