<svg width="100" height="96" viewBox="0 0 100 96" fill="none" xmlns="http://www.w3.org/2000/svg">
<path d="M4.1665 79.8977V63.9181C4.1665 61.6544 4.98248 59.7568 6.61442 58.2254C8.24637 56.694 10.2082 55.9284 12.4998 55.9284H26.1457C27.5346 55.9284 28.854 56.2613 30.104 56.9271C31.354 57.5929 32.3609 58.4917 33.1248 59.6236C35.1387 62.2203 37.6214 64.251 40.5728 65.7158C43.5241 67.1806 46.6665 67.913 49.9998 67.913C53.4026 67.913 56.5797 67.1806 59.5311 65.7158C62.4825 64.251 64.9304 62.2203 66.8748 59.6236C67.7776 58.4917 68.8366 57.5929 70.0519 56.9271C71.2672 56.2613 72.5346 55.9284 73.854 55.9284H87.4998C89.8609 55.9284 91.8401 56.694 93.4373 58.2254C95.0346 59.7568 95.8332 61.6544 95.8332 63.9181V79.8977H66.6665V70.8093C64.2359 72.4738 61.6144 73.7389 58.8019 74.6045C55.9894 75.47 53.0554 75.9028 49.9998 75.9028C47.0137 75.9028 44.0971 75.4534 41.2498 74.5545C38.4026 73.6557 35.7637 72.374 33.3332 70.7094V79.8977H4.1665ZM49.9998 63.9181C47.3609 63.9181 44.8609 63.3355 42.4998 62.1704C40.1387 61.0052 38.1596 59.3906 36.5623 57.3266C35.3818 55.662 33.9061 54.347 32.1353 53.3816C30.3644 52.4162 28.4373 51.9335 26.354 51.9335C27.8818 49.47 31.1109 47.5224 36.0415 46.0909C40.9721 44.6594 45.6248 43.9437 49.9998 43.9437C54.3748 43.9437 59.0276 44.6594 63.9582 46.0909C68.8887 47.5224 72.1179 49.47 73.6457 51.9335C71.6318 51.9335 69.7221 52.4162 67.9165 53.3816C66.1109 54.347 64.6179 55.662 63.4373 57.3266C61.9096 59.4572 59.9651 61.0884 57.604 62.2203C55.2429 63.3522 52.7082 63.9181 49.9998 63.9181ZM16.6665 51.9335C13.1943 51.9335 10.2429 50.7683 7.81234 48.4379C5.38178 46.1076 4.1665 43.2779 4.1665 39.9488C4.1665 36.5532 5.38178 33.7068 7.81234 31.4097C10.2429 29.1127 13.1943 27.9642 16.6665 27.9642C20.2082 27.9642 23.1769 29.1127 25.5728 31.4097C27.9686 33.7068 29.1665 36.5532 29.1665 39.9488C29.1665 43.2779 27.9686 46.1076 25.5728 48.4379C23.1769 50.7683 20.2082 51.9335 16.6665 51.9335ZM83.3332 51.9335C79.8609 51.9335 76.9096 50.7683 74.479 48.4379C72.0484 46.1076 70.8332 43.2779 70.8332 39.9488C70.8332 36.5532 72.0484 33.7068 74.479 31.4097C76.9096 29.1127 79.8609 27.9642 83.3332 27.9642C86.8748 27.9642 89.8436 29.1127 92.2394 31.4097C94.6353 33.7068 95.8332 36.5532 95.8332 39.9488C95.8332 43.2779 94.6353 46.1076 92.2394 48.4379C89.8436 50.7683 86.8748 51.9335 83.3332 51.9335ZM49.9998 39.9488C46.5276 39.9488 43.5762 38.7836 41.1457 36.4533C38.7151 34.1229 37.4998 31.2932 37.4998 27.9642C37.4998 24.5685 38.7151 21.7221 41.1457 19.4251C43.5762 17.128 46.5276 15.9795 49.9998 15.9795C53.5415 15.9795 56.5103 17.128 58.9061 19.4251C61.3019 21.7221 62.4998 24.5685 62.4998 27.9642C62.4998 31.2932 61.3019 34.1229 58.9061 36.4533C56.5103 38.7836 53.5415 39.9488 49.9998 39.9488Z" fill="white"/>
</svg>
