<svg width="104" height="96" viewBox="0 0 104 96" fill="none" xmlns="http://www.w3.org/2000/svg">
<path d="M19.7164 75.9028C16.0331 75.9028 13.1803 74.721 11.1581 72.3573C9.13589 69.9937 8.37756 67.114 8.88311 63.7184L13.4331 33.7567C14.0831 29.7618 16.0151 26.4661 19.2289 23.8694C22.4428 21.2727 26.2164 19.9744 30.5498 19.9744H73.4498C77.7831 19.9744 81.5567 21.2727 84.7706 23.8694C87.9845 26.4661 89.9165 29.7618 90.5665 33.7567L95.1164 63.7184C95.622 67.114 94.8637 69.9937 92.8414 72.3573C90.8192 74.721 87.9664 75.9028 84.2831 75.9028C82.7664 75.9028 81.3581 75.6531 80.0581 75.1537C78.7581 74.6544 77.5665 73.9053 76.4831 72.9066L66.7331 63.9181H37.2664L27.5164 72.9066C26.4331 73.9053 25.2414 74.6544 23.9414 75.1537C22.6414 75.6531 21.2331 75.9028 19.7164 75.9028ZM21.4498 67.3138L33.7998 55.9283H70.1998L82.5498 67.3138C82.6942 67.4469 83.272 67.6467 84.2831 67.913C85.0776 67.913 85.7095 67.6966 86.1789 67.2638C86.6484 66.8311 86.8109 66.2485 86.6665 65.5161L81.8998 34.7554C81.6109 32.8246 80.672 31.21 79.0831 29.9116C77.4942 28.6133 75.6164 27.9641 73.4498 27.9641H30.5498C28.3831 27.9641 26.5053 28.6133 24.9164 29.9116C23.3276 31.21 22.3887 32.8246 22.0998 34.7554L17.3331 65.5161C17.1887 66.2485 17.3512 66.8311 17.8206 67.2638C18.2901 67.6966 18.922 67.913 19.7164 67.913C19.8609 67.913 20.4387 67.7133 21.4498 67.3138ZM73.6665 51.9335C74.8942 51.9335 75.9234 51.5506 76.754 50.7849C77.5845 50.0192 77.9998 49.0705 77.9998 47.9386C77.9998 46.8067 77.5845 45.8579 76.754 45.0922C75.9234 44.3265 74.8942 43.9437 73.6665 43.9437C72.4387 43.9437 71.4095 44.3265 70.5789 45.0922C69.7484 45.8579 69.3331 46.8067 69.3331 47.9386C69.3331 49.0705 69.7484 50.0192 70.5789 50.7849C71.4095 51.5506 72.4387 51.9335 73.6665 51.9335ZM64.9998 39.9488C66.2276 39.9488 67.2567 39.566 68.0873 38.8003C68.9178 38.0346 69.3331 37.0858 69.3331 35.9539C69.3331 34.822 68.9178 33.8732 68.0873 33.1076C67.2567 32.3419 66.2276 31.959 64.9998 31.959C63.772 31.959 62.7428 32.3419 61.9123 33.1076C61.0817 33.8732 60.6664 34.822 60.6664 35.9539C60.6664 37.0858 61.0817 38.0346 61.9123 38.8003C62.7428 39.566 63.772 39.9488 64.9998 39.9488ZM33.5831 51.9335H40.0831V44.9424H47.6664V38.9501H40.0831V31.959H33.5831V38.9501H25.9998V44.9424H33.5831V51.9335Z" fill="white"/>
</svg>
